<svg xmlns="http://www.w3.org/2000/svg" width="220" height="271" viewBox="0 0 220 271" fill="none"><g filter="url(#filter0_d_1665_839)"><rect x="80" y="130.809" width="60" height="60" rx="5.30579" fill="#121214" shape-rendering="crispEdges"/><rect x="80" y="130.809" width="60" height="60" rx="5.30579" fill="url(#paint0_linear_1665_839)" shape-rendering="crispEdges"/><rect x="80.4421" y="131.251" width="59.1157" height="59.1157" rx="4.86364" stroke="url(#paint1_linear_1665_839)" stroke-width="0.884298" shape-rendering="crispEdges"/><line x1="109" y1="130.809" x2="109" y2="0.808594" stroke="url(#paint2_linear_1665_839)" stroke-width="2" stroke-dasharray="8 8"/><path d="M111.526 168.837C103.306 175.858 97.4694 176.354 94.4796 173.364C91.725 170.608 94.0081 163.702 99.5769 156.879L89 146.304H95.7604L106.266 156.809C99.635 163.48 95.7698 170.584 97.7666 172.581C99.4216 174.238 104.515 171.94 110.012 167.324L111.525 168.837H111.526Z" fill="#F7F7FA"/><path d="M130.808 174.603H124.048L113.54 164.095C120.17 157.425 124.037 150.322 122.04 148.325C120.384 146.666 115.287 148.966 109.789 153.586L108.276 152.072C116.5 145.047 122.337 144.551 125.327 147.543C128.083 150.299 125.8 157.205 120.231 164.027L130.808 174.603Z" fill="#F7F7FA"/></g><defs><filter id="filter0_d_1665_839" x="0" y="-79.1914" width="220" height="350" filterUnits="userSpaceOnUse" color-interpolation-filters="sRGB"><feFlood flood-opacity="0" result="BackgroundImageFix"/><feColorMatrix in="SourceAlpha" type="matrix" values="0 0 0 0 0 0 0 0 0 0 0 0 0 0 0 0 0 0 127 0" result="hardAlpha"/><feOffset/><feGaussianBlur stdDeviation="40"/><feComposite in2="hardAlpha" operator="out"/><feColorMatrix type="matrix" values="0 0 0 0 0.6 0 0 0 0 0.427451 0 0 0 0 1 0 0 0 1 0"/><feBlend mode="normal" in2="BackgroundImageFix" result="effect1_dropShadow_1665_839"/><feBlend mode="normal" in="SourceGraphic" in2="effect1_dropShadow_1665_839" result="shape"/></filter><linearGradient id="paint0_linear_1665_839" x1="110" y1="130.809" x2="110" y2="190.809" gradientUnits="userSpaceOnUse"><stop stop-color="#202024"/><stop offset="1" stop-color="#202024" stop-opacity="0.2"/></linearGradient><linearGradient id="paint1_linear_1665_839" x1="110" y1="130.809" x2="110" y2="190.809" gradientUnits="userSpaceOnUse"><stop stop-color="#323238"/><stop offset="1" stop-color="#323238" stop-opacity="0.3"/></linearGradient><linearGradient id="paint2_linear_1665_839" x1="111.5" y1="131.664" x2="111.5" y2="8.07833" gradientUnits="userSpaceOnUse"><stop stop-color="#505059"/><stop offset="1" stop-color="#505059" stop-opacity="0"/></linearGradient></defs></svg>